# xmcd
#
# Track frame offsets:
#	150
#	15195
#	27444
#	38290
#	78247
#	93107
#	95140
#	106417
#	118457
#	137670
#	156430
#	175917
#
# Disc length: 2731 seconds
#
# Revision: 1
# Processed by: cddbd v1.5.1PL0 Copyright (c) Steve Scherf et al.
# Submitted via: audiograbber 1.83.01
#
DISCID=8d0aa90c
DTITLE=Arrogance - Prolepsis
DYEAR=1974
DGENRE=NC Rock
TTITLE0=Six Wings
TTITLE1=Bad Girl
TTITLE2=Barely Alive
TTITLE3=Sun Sweet
TTITLE4=North End of Town
TTITLE5=We Live to Play
TTITLE6=Slaughtered Elves
TTITLE7=Can't I Buy a Song
TTITLE8=Sunday Feeling
TTITLE9=People Aren't Free
TTITLE10=Cost of Money
TTITLE11=My Final Song
EXTD=
EXTT0=
EXTT1=
EXTT2=
EXTT3=
EXTT4=
EXTT5=
EXTT6=
EXTT7=
EXTT8=
EXTT9=
EXTT10=
EXTT11=
PLAYORDER=
